<svg width="91" height="24" viewBox="0 0 91 24" fill="white" xmlns="http://www.w3.org/2000/svg">
<g clip-path="url(#clip0_4_365)">
<path d="M18.2824 19.0335H12.4887C8.44705 19.0335 5.16822 15.8845 5.16822 12.0005C5.16822 8.11659 8.44705 4.96759 12.4887 4.96759H18.2814C19.6472 4.96759 20.7641 3.85069 20.7641 2.48272C20.7652 1.1169 19.6472 0 18.2824 0H12.4887C5.5931 0 0 5.3753 0 12.0005C0 18.6279 5.5931 24.0011 12.4887 24.0011H18.2814C19.6472 24.0011 20.7641 22.882 20.7641 21.5184C20.7652 20.1504 19.6472 19.0335 18.2824 19.0335Z" fill="#58595B"/>
<path d="M27.5619 19.9005V14.1057C27.5619 10.064 30.7109 6.78517 34.597 6.78517C38.4831 6.78517 41.6321 10.064 41.6321 14.1057V19.9005C41.6321 21.2663 42.749 22.3832 44.1127 22.3832C45.4785 22.3832 46.5954 21.2663 46.5954 19.9005V14.1057C46.5954 7.21219 41.2244 1.61694 34.597 1.61694C27.9696 1.61694 22.5964 7.21219 22.5964 14.1057V19.9005C22.5964 21.2663 23.7133 22.3832 25.0813 22.3832C26.4461 22.3832 27.5619 21.2652 27.5619 19.9005Z" fill="#58595B"/>
<path d="M50.9119 19.0335H56.7046C60.7462 19.0335 64.0272 15.8845 64.0272 12.0005C64.0272 8.11659 60.7473 4.96759 56.7046 4.96759H50.9119C49.5461 4.96759 48.4292 3.85069 48.4292 2.48272C48.4292 1.1169 49.5461 0 50.9119 0H56.7046C63.6012 0 69.1922 5.3753 69.1922 12.0005C69.1922 18.6279 63.6012 24.0011 56.7056 24.0011H50.913C49.5472 24.0011 48.4303 22.882 48.4303 21.5184C48.4292 20.1504 49.5461 19.0335 50.9119 19.0335Z" fill="#58595B"/>
<path d="M53.3946 15.7246C53.3946 17.0883 52.2777 18.2052 50.9119 18.2052C49.5461 18.2052 48.4292 17.0883 48.4292 15.7246V8.27538C48.4292 6.91171 49.5461 5.79266 50.9119 5.79266C52.2777 5.79266 53.3946 6.91171 53.3946 8.27538V15.7246Z" fill="#58595B"/>
<path d="M88.672 0H83.5156C76.6178 0 71.0269 5.3753 71.0269 12.0005C71.0269 14.3373 71.0269 21.749 71.0269 21.749C71.0269 22.9872 72.1438 24.0011 73.5096 24.0011H73.7113C75.0771 24.0011 76.194 22.8842 76.194 21.5184C76.194 21.5184 76.194 13.655 76.194 12.0005C76.194 8.11659 79.4728 4.96759 83.5166 4.96759H88.6731C90.0389 4.96759 91.1558 3.85069 91.1558 2.48272C91.1547 1.1169 90.0378 0 88.672 0Z" fill="#58595B"/>
<path d="M79.7677 15.5529C78.4019 15.5529 77.2871 14.436 77.2871 13.0702C77.2871 11.7044 78.4019 10.5875 79.7677 10.5875H88.6718C90.0376 10.5875 91.1545 11.7044 91.1545 13.0702C91.1545 14.436 90.0376 15.5529 88.6718 15.5529H79.7677Z" fill="#58595B"/>
</g>
<defs>
<clipPath id="clip0_4_365">
<rect width="91" height="24" fill="white"/>
</clipPath>
</defs>
</svg>
